<?xml version="1.0" standalone="no"?>
<!DOCTYPE svg PUBLIC "-//W3C//DTD SVG 20010904//EN"
 "http://www.w3.org/TR/2001/REC-SVG-20010904/DTD/svg10.dtd">
<svg version="1.0" xmlns="http://www.w3.org/2000/svg"
 width="1024.000000pt" height="1024.000000pt" viewBox="0 0 1024.000000 1024.000000"
 preserveAspectRatio="xMidYMid meet">
<metadata>
Created by potrace 1.14, written by Peter Selinger 2001-2017
</metadata>
<g transform="translate(0.000000,1024.000000) scale(0.100000,-0.100000)"
fill="#000000" stroke="none">
<path d="M6615 7450 c3 -5 13 -10 21 -10 8 0 14 5 14 10 0 6 -9 10 -21 10 -11
0 -17 -4 -14 -10z"/>
<path d="M3625 7439 c-270 -24 -577 -209 -760 -459 -26 -36 -52 -64 -57 -62
-5 1 -7 -2 -3 -7 3 -6 -5 -27 -18 -48 -73 -116 -116 -234 -142 -393 -13 -82
-15 -279 -15 -1457 0 -1454 1 -1480 50 -1672 10 -40 16 -80 13 -89 -4 -9 -2
-13 4 -9 14 9 37 -48 27 -64 -5 -8 -3 -9 6 -4 10 6 12 4 7 -9 -4 -9 -3 -15 2
-12 12 8 23 -22 14 -37 -3 -7 -2 -9 2 -4 11 10 87 -111 79 -125 -4 -6 -2 -8 4
-4 13 8 54 -43 45 -57 -3 -5 -1 -7 4 -4 14 9 37 -19 28 -33 -5 -8 -10 -8 -20
0 -10 8 -13 7 -11 -4 4 -26 17 -32 28 -13 9 18 11 18 33 -3 22 -20 25 -57 4
-44 -5 3 -9 0 -9 -5 0 -6 5 -11 10 -11 6 0 15 -10 20 -22 7 -18 9 -19 9 -5 1
9 6 17 13 17 6 0 3 6 -8 14 -10 8 -16 17 -12 21 8 8 84 -65 80 -77 -1 -5 2 -7
8 -3 11 7 72 -39 64 -49 -2 -3 -1 -4 2 -1 11 7 45 -15 39 -25 -4 -6 1 -7 11
-3 12 4 15 3 10 -5 -4 -7 -1 -15 8 -18 9 -3 13 -11 10 -16 -4 -7 0 -7 12 0 14
7 35 2 82 -17 34 -15 59 -31 55 -36 -5 -4 -1 -6 7 -3 8 3 35 -1 60 -8 103 -30
255 -33 1404 -35 643 0 1177 -5 1185 -9 9 -5 29 -11 44 -15 15 -3 26 -9 23
-13 -3 -5 15 -9 40 -11 24 -1 77 -11 117 -22 39 -11 78 -20 85 -21 6 -1 12 -5
12 -10 0 -4 16 -8 35 -8 19 0 35 -5 35 -10 0 -6 6 -10 13 -9 25 5 87 -13 80
-24 -4 -6 3 -8 21 -3 15 4 32 3 39 -1 6 -4 27 -8 46 -10 19 -2 40 -8 46 -12
16 -13 82 -32 128 -38 23 -2 45 -9 48 -15 4 -6 11 -8 16 -5 8 5 38 0 118 -23
22 -6 24 -8 10 -10 -18 -1 -17 -2 4 -11 13 -5 32 -7 41 -4 23 7 123 -19 113
-30 -5 -4 -1 -6 8 -2 22 7 102 -16 92 -28 -4 -4 -2 -5 5 -1 17 10 65 -2 57
-14 -3 -6 4 -11 17 -12 25 -2 47 -5 63 -8 6 -1 13 -2 17 -1 4 0 25 -5 45 -13
21 -8 46 -15 56 -15 37 -2 47 -5 47 -13 0 -4 8 -7 18 -6 9 1 28 0 42 -1 19 -1
22 -3 11 -10 -10 -6 0 -8 27 -4 27 4 48 1 59 -8 10 -7 15 -10 11 -5 -4 5 -2
18 4 30 15 28 21 79 8 71 -10 -6 -52 75 -54 105 -1 8 -9 26 -18 40 -28 41 -47
95 -44 123 2 15 1 25 -2 23 -9 -10 -33 24 -26 36 4 7 4 10 -1 6 -8 -8 -47 65
-48 90 0 6 -4 12 -8 12 -5 0 -5 7 -2 17 5 12 3 14 -7 8 -10 -6 -12 -3 -8 13 4
14 2 20 -4 16 -6 -4 -8 2 -3 16 5 17 4 20 -5 15 -10 -6 -11 -1 -6 21 4 19 3
24 -3 15 -7 -11 -11 -9 -21 8 -6 13 -9 29 -6 37 3 8 2 13 -3 9 -5 -3 -17 16
-27 42 -9 27 -28 71 -41 100 -14 29 -21 57 -17 64 4 7 3 9 -4 5 -11 -7 -34 50
-37 95 -3 27 18 74 32 74 4 0 6 7 5 15 -7 31 -7 35 8 35 17 0 32 29 24 49 -3
7 2 16 10 19 9 4 16 13 16 22 0 8 6 14 13 12 7 -1 11 6 10 18 -4 34 20 117 29
103 6 -8 8 -2 7 17 -4 54 0 67 16 61 12 -4 13 -2 3 14 -9 14 -9 25 0 45 7 14
9 37 6 51 -3 13 -2 24 2 24 9 0 9 2553 0 2761 -4 91 -8 116 -22 126 -9 6 -20
32 -25 57 -5 25 -17 64 -29 88 -11 23 -20 52 -20 65 0 14 -4 21 -10 18 -6 -4
-17 11 -25 32 -9 21 -20 45 -25 53 -6 8 -14 25 -20 38 -5 12 -14 22 -19 22 -6
0 -7 7 -4 17 4 10 2 14 -4 10 -6 -4 -14 4 -17 19 -4 15 -10 24 -13 20 -7 -7
-83 70 -83 84 0 5 5 12 10 15 6 3 10 10 10 16 0 5 -4 9 -10 9 -5 0 -10 -7 -10
-15 0 -8 -3 -15 -6 -15 -12 0 -83 64 -81 73 1 6 -3 11 -10 12 -18 0 -83 56
-77 66 3 5 -2 6 -10 3 -9 -3 -16 -2 -16 3 0 4 -16 17 -35 27 -19 11 -35 22
-35 26 0 4 -13 10 -29 13 -16 3 -36 13 -45 22 -8 9 -25 18 -35 20 -38 7 -91
37 -84 48 3 6 1 7 -6 3 -6 -4 -43 2 -82 14 -49 15 -118 24 -227 30 -191 11
-2651 10 -2777 -1z"/>
<path d="M3448 7433 c7 -3 16 -2 19 1 4 3 -2 6 -13 5 -11 0 -14 -3 -6 -6z"/>
<path d="M3202 7338 c-15 -15 -16 -31 0 -26 6 2 12 12 14 21 3 20 2 21 -14 5z"/>
<path d="M7117 7153 c-12 -12 -7 -22 8 -17 8 4 15 10 15 15 0 11 -14 12 -23 2z"/>
<path d="M7413 6767 c4 -10 7 -27 7 -38 0 -12 5 -16 15 -13 20 8 19 17 -7 45
-16 18 -19 19 -15 6z"/>
<path d="M2642 6640 c0 -14 2 -19 5 -12 2 6 2 18 0 25 -3 6 -5 1 -5 -13z"/>
<path d="M2592 5980 c0 -14 2 -19 5 -12 2 6 2 18 0 25 -3 6 -5 1 -5 -13z"/>
<path d="M2561 5344 c0 -11 3 -14 6 -6 3 7 2 16 -1 19 -3 4 -6 -2 -5 -13z"/>
<path d="M2563 4280 c0 -25 2 -35 4 -22 2 12 2 32 0 45 -2 12 -4 2 -4 -23z"/>
<path d="M2583 4115 c0 -22 2 -30 4 -17 2 12 2 30 0 40 -3 9 -5 -1 -4 -23z"/>
<path d="M7502 3570 c0 -14 2 -19 5 -12 2 6 2 18 0 25 -3 6 -5 1 -5 -13z"/>
<path d="M7415 3289 c-4 -6 -5 -12 -2 -15 2 -3 7 2 10 11 7 17 1 20 -8 4z"/>
<path d="M2652 3230 c0 -19 2 -27 5 -17 2 9 2 25 0 35 -3 9 -5 1 -5 -18z"/>
<path d="M7331 3128 c0 -13 3 -17 6 -10 2 6 10 9 16 5 7 -4 6 1 -2 10 -18 22
-21 21 -20 -5z"/>
<path d="M2880 2775 c0 -8 5 -15 10 -15 6 0 10 7 10 15 0 8 -4 15 -10 15 -5 0
-10 -7 -10 -15z"/>
<path d="M3020 2751 c0 -21 17 -37 28 -26 3 3 0 10 -7 14 -7 5 -10 14 -7 20 4
6 2 11 -3 11 -6 0 -11 -9 -11 -19z"/>
<path d="M2920 2730 c0 -5 7 -10 15 -10 8 0 15 5 15 10 0 6 -7 10 -15 10 -8 0
-15 -4 -15 -10z"/>
<path d="M3249 2614 c17 -13 25 -14 34 -5 9 9 8 11 -4 6 -10 -4 -20 -2 -24 4
-3 6 -11 11 -18 11 -6 0 -1 -7 12 -16z"/>
<path d="M3210 2605 c7 -9 15 -13 17 -11 7 7 -7 26 -19 26 -6 0 -6 -6 2 -15z"/>
<path d="M3150 2570 c0 -5 11 -10 24 -10 14 0 28 5 31 10 4 6 -7 10 -24 10
-17 0 -31 -4 -31 -10z"/>
<path d="M3693 2523 c9 -2 23 -2 30 0 6 3 -1 5 -18 5 -16 0 -22 -2 -12 -5z"/>
<path d="M3760 2520 c0 -3 120 -5 268 -6 147 0 308 -3 357 -6 50 -3 72 -2 50
1 -22 3 43 8 145 11 102 3 -41 5 -317 5 -277 0 -503 -2 -503 -5z"/>
<path d="M4888 2523 c7 -3 16 -2 19 1 4 3 -2 6 -13 5 -11 0 -14 -3 -6 -6z"/>
<path d="M5011 2525 c7 -7 219 -8 226 -1 4 3 -47 6 -112 6 -65 0 -116 -2 -114
-5z"/>
<path d="M3688 2503 c7 -3 16 -2 19 1 4 3 -2 6 -13 5 -11 0 -14 -3 -6 -6z"/>
<path d="M5838 2503 c7 -3 16 -2 19 1 4 3 -2 6 -13 5 -11 0 -14 -3 -6 -6z"/>
<path d="M5983 2503 c9 -2 25 -2 35 0 9 3 1 5 -18 5 -19 0 -27 -2 -17 -5z"/>
<path d="M3528 2493 c6 -2 18 -2 25 0 6 3 1 5 -13 5 -14 0 -19 -2 -12 -5z"/>
<path d="M3968 2493 c7 -3 16 -2 19 1 4 3 -2 6 -13 5 -11 0 -14 -3 -6 -6z"/>
<path d="M6225 2450 c-16 -7 -17 -9 -3 -9 9 -1 20 4 23 9 7 11 7 11 -20 0z"/>
<path d="M7148 2203 c6 -2 18 -2 25 0 6 3 1 5 -13 5 -14 0 -19 -2 -12 -5z"/>
<path d="M7208 2178 c5 -5 16 -8 23 -6 8 3 3 7 -10 11 -17 4 -21 3 -13 -5z"/>
</g>
</svg>
